<mxfile host="Electron" modified="2024-02-22T13:02:57.224Z" agent="Mozilla/5.0 (Macintosh; Intel Mac OS X 10_15_7) AppleWebKit/537.36 (KHTML, like Gecko) draw.io/22.1.16 Chrome/120.0.6099.109 Electron/28.1.0 Safari/537.36" etag="c6qHY24exZ4pEx9mz1Ry" version="22.1.16" type="device">
  <diagram name="overview" id="tzETeHPHRYxmLnAUXZ1T">
    <mxGraphModel dx="853" dy="684" grid="1" gridSize="10" guides="1" tooltips="1" connect="1" arrows="1" fold="1" page="1" pageScale="1" pageWidth="827" pageHeight="1169" math="1" shadow="0">
      <root>
        <mxCell id="0" />
        <mxCell id="1" parent="0" />
        <mxCell id="Liv6vgH6BcydxZImhdhk-2" value="CNN features" style="rounded=0;whiteSpace=wrap;html=1;fillColor=#dae8fc;strokeColor=#0000FF;" vertex="1" parent="1">
          <mxGeometry x="300" y="210" width="120" height="60" as="geometry" />
        </mxCell>
        <mxCell id="Liv6vgH6BcydxZImhdhk-4" value="" style="shape=image;imageAspect=0;aspect=fixed;verticalLabelPosition=bottom;verticalAlign=top;image=data:image/png,iVBORw0KGgoAAAANSUhEUgAAAnoAAANuCAYAAACBmqQ1AAAMQGlDQ1BJQ0MgUHJvZmlsZQAASImVVwdYU8kWnluSkEBoAQSkhN4EESkBpITQQu/NRkgChBJiIKjYkUUF1y4qYENXRRSsgNgRO4tiw75YUFHWxYJdeZMCuu4r35vvmzv//efMf86cO3PvHQDUTnBEohxUHYBcYYE4JsiPnpScQic9AWRgCIjAEuhxuPkiZlRUGIBlqP17eXcDINL2qr1U65/9/7Vo8Pj5XACQKIjTePncXIgPAIBXc0XiAgCIUt5saoFIimEFWmIYIMQLpThDjqulOE2O98hs4mJYELcBoKTC4YgzAFC9DHl6ITcDaqj2Q+wo5AmEAKjRIfbOzc3jQZwKsTW0EUEs1Wek/aCT8TfNtGFNDidjGMvnIitK/oJ8UQ5n+v+Zjv9dcnMkQz4sYVXJFAfHSOcM83YzOy9UilUg7hOmRURCrAnxBwFPZg8xSsmUBMfL7VEDbj4L5gzoQOzI4/iHQmwAcaAwJyJMwaelCwLZEMMVgk4TFLDjINaFeCE/PyBWYbNJnBej8IU2potZTAV/jiOW+ZX6ui/Jjmcq9F9n8tkKfUy1KDMuEWIKxOaFgoQIiFUhdsjPjg1V2IwrymRFDNmIJTHS+M0hjuELg/zk+lhhujgwRmFflps/NF9sU6aAHaHA+woy44Ll+cHauBxZ/HAu2GW+kBk/pMPPTwobmguP7x8gnzv2jC+Mj1XofBAV+MXIx+IUUU6Uwh435ecESXlTiJ3zC2MVY/GEArgg5fp4uqggKk4eJ16UxQmJkseDLwNhgAX8AR1IYE0DeSALCDr6mvrgnbwnEHCAGGQAPrBXMEMjEmU9QniNBUXgT4j4IH94nJ+slw8KIf91mJVf7UG6rLdQNiIbPIE4F4SCHHgvkY0SDntLAI8hI/iHdw6sXBhvDqzS/n/PD7HfGSZkwhSMZMgjXW3IkhhA9CcGEwOJNrg+7o174mHw6gurE87A3Yfm8d2e8ITQSXhIuE7oJtyaLCgW/xRlOOiG+oGKXKT9mAvcEmq64H64F1SHyrgOrg/scWfoh4n7QM8ukGUp4pZmhf6T9t9m8MPTUNiRHckoeQTZl2z980hVW1WXYRVprn/MjzzWtOF8s4Z7fvbP+iH7PNiG/myJLcT2Y2exk9h57AjWBOjYcawZa8eOSvHw6nosW11D3mJk8WRDHcE//A09WWkm8x3rHHsdv8j7CvjTpO9owMoTTRcLMjIL6Ez4ReDT2UKuwyi6k6OTEwDS74v89fUmWvbdQHTav3Pz/wDA6/jg4ODh71zIcQD2usHtf+g7Z82Anw5lAM4d4krEhXIOl14I8C2hBneaHjACZsAazscJuAJP4AsCQAiIBHEgGUyC0WfCdS4GU8FMMA+UgnKwDKwGlWAj2AJ2gN1gH2gCR8BJcAZcBJfBdXAHrp4e8AL0g3fgM4IgJISK0BA9xBixQOwQJ4SBeCMBSBgSgyQjqUgGIkQkyExkPlKOrEAqkc1ILbIXOYScRM4jncgt5AHSi7xGPqEYqoJqoYaoJToaZaBMNBSNQyeiGegUtAgtQZega9EadBfaiJ5EL6LX0W70BTqAAUwZ08FMMHuMgbGwSCwFS8fE2GysDKvAarB6rAU+56tYN9aHfcSJOA2n4/ZwBQfj8TgXn4LPxhfjlfgOvBFvw6/iD/B+/BuBSjAg2BE8CGxCEiGDMJVQSqggbCMcJJyGe6mH8I5IJOoQrYhucC8mE7OIM4iLieuJDcQTxE7iI+IAiUTSI9mRvEiRJA6pgFRKWkfaRTpOukLqIX1QUlYyVnJSClRKURIqFStVKO1UOqZ0Remp0meyOtmC7EGOJPPI08lLyVvJLeRL5B7yZ4oGxYriRYmjZFHmUdZS6imnKXcpb5SVlU2V3ZWjlQXKc5XXKu9RPqf8QPmjiqaKrQpLZYKKRGWJynaVEyq3VN5QqVRLqi81hVpAXUKtpZ6i3qd+UKWpOqiyVXmqc1SrVBtVr6i+VCOrWagx1SapFalVqO1Xu6TWp05Wt1RnqXPUZ6tXqR9S71If0KBpjNGI1MjVWKyxU+O8xjNNkqalZoAmT7NEc4vmKc1HNIxmRmPRuLT5tK2007QeLaKWlRZbK0urXGu3VodWv7amtrN2gvY07Srto9rdOpiOpQ5bJ0dnqc4+nRs6n0YYjmCO4I9YNKJ+xJUR73VH6vrq8nXLdBt0r+t+0qPrBehl6y3Xa9K7p4/r2+pH60/V36B/Wr9vpNZIz5HckWUj9428bYAa2BrEGMww2GLQbjBgaGQYZCgyXGd4yrDPSMfI1yjLaJXRMaNeY5qxt7HAeJXxcePndG06k55DX0tvo/ebGJgEm0hMNpt0mHw2tTKNNy02bTC9Z0YxY5ilm60yazXrNzc2DzefaV5nftuCbMGwyLRYY3HW4r2llWWi5QLLJstnVrpWbKsiqzqru9ZUax/rKdY11tdsiDYMm2yb9TaXbVFbF9tM2yrbS3aonaudwG69Xecowij3UcJRNaO67FXsmfaF9nX2Dxx0HMIcih2aHF6ONh+dMnr56LOjvzm6OOY4bnW8M0ZzTMiY4jEtY1472Tpxnaqcro2ljg0cO2ds89hXznbOfOcNzjddaC7hLgtcWl2+urq5il3rXXvdzN1S3arduhhajCjGYsY5d4K7n/sc9yPuHz1cPQo89nn85Wnvme250/PZOKtx/HFbxz3yMvXieG326vame6d6b/Lu9jHx4fjU+Dz0NfPl+W7zfcq0YWYxdzFf+jn6if0O+r1nebBmsU74Y/5B/mX+HQGaAfEBlQH3A00DMwLrAvuDXIJmBJ0IJgSHBi8P7mIbsrnsWnZ/iFvIrJC2UJXQ2NDK0IdhtmHisJZwNDwkfGX43QiLCGFEUySIZEeujLwXZRU1JepwNDE6Kroq+knMmJiZMWdjabGTY3fGvovzi1sadyfeOl4S35qgljAhoTbhfaJ/4orE7qTRSbOSLibrJwuSm1NIKQkp21IGxgeMXz2+Z4LLhNIJNyZaTZw28fwk/Uk5k45OVpvMmbw/lZCamLoz9QsnklPDGUhjp1Wn9XNZ3DXcFzxf3ipeL9+Lv4L/NN0rfUX6swyvjJUZvZk+mRWZfQKWoFLwKis4a2PW++zI7O3ZgzmJOQ25SrmpuYeEmsJsYVueUd60vE6RnahU1D3FY8rqKf3iUPG2fCR/Yn5zgRb8kW+XWEt+kTwo9C6sKvwwNWHq/mka04TT2qfbTl80/WlRYNFvM/AZ3BmtM01mzpv5YBZz1ubZyOy02a1zzOaUzOmZGzR3xzzKvOx5vxc7Fq8ofjs/cX5LiWHJ3JJHvwT9UleqWiou7VrguWDjQnyhYGHHorGL1i36VsYru1DuWF5R/mUxd/GFX8f8uvbXwSXpSzqWui7dsIy4TLjsxnKf5TtWaKwoWvFoZfjKxlX0VWWr3q6evPp8hXPFxjWUNZI13WvD1javM1+3bN2XyszK61V+VQ3VBtWLqt+v562/ssF3Q/1Gw43lGz9tEmy6uTloc2ONZU3FFuKWwi1PtiZsPfsb47fabfrbyrd93S7c3r0jZkdbrVtt7U6DnUvr0DpJXe+uCbsu7/bf3VxvX7+5QaehfA/YI9nzfG/q3hv7Qve17mfsrz9gcaD6IO1gWSPSOL2xvymzqbs5ubnzUMih1hbPloOHHQ5vP2JypOqo9tGlxyjHSo4NHi86PnBCdKLvZMbJR62TW++cSjp1rS26reN06OlzZwLPnDrLPHv8nNe5I+c9zh+6wLjQdNH1YmO7S/vB311+P9jh2tF4ye1S82X3yy2d4zqPXfG5cvKq/9Uz19jXLl6PuN55I/7Gza4JXd03eTef3cq59ep24e3Pd+beJdwtu6d+r+K+wf2aP2z+aOh27T76wP9B+8PYh3cecR+9eJz/+EtPyRPqk4qnxk9rnzk9O9Ib2Hv5+fjnPS9ELz73lf6p8Wf1S+uXB/7y/au9P6m/55X41eDrxW/03mx/6/y2dSBq4P673Hef35d90Puw4yPj49lPiZ+efp76hfRl7Vebry3fQr/dHcwdHBRxxBzZrwAGK5qeDsDr7QBQkwGgwfMZZbz8/CcriPzMKkPgP2H5GVFWXAGoh//v0X3w76YLgD1b4fEL6qtNACCKCkCcO0DHjh2uQ2c12blSWojwHLAp4Gtabhr4N0V+5vwh7p9bIFV1Bj+3/wLfkHxoKXhHXQAAAIplWElmTU0AKgAAAAgABAEaAAUAAAABAAAAPgEbAAUAAAABAAAARgEoAAMAAAABAAIAAIdpAAQAAAABAAAATgAAAAAAAACQAAAAAQAAAJAAAAABAAOShgAHAAAAEgAAAHigAgAEAAAAAQAAAnqgAwAEAAAAAQAAA24AAAAAQVNDSUkAAABTY3JlZW5zaG90JCKpYQAAAAlwSFlzAAAWJQAAFiUBSVIk8AAAAdZpVFh0WE1MOmNvbS5hZG9iZS54bXAAAAAAADx4OnhtcG1ldGEgeG1sbnM6eD0iYWRvYmU6bnM6bWV0YS8iIHg6eG1wdGs9IlhNUCBDb3JlIDYuMC4wIj4KICAgPHJkZjpSREYgeG1sbnM6cmRmPSJodHRwOi8vd3d3LnczLm9yZy8xOTk5LzAyLzIyLXJkZi1zeW50YXgtbnMjIj4KICAgICAgPHJkZjpEZXNjcmlwdGlvbiByZGY6YWJvdXQ9IiIKICAgICAgICAgICAgeG1sbnM6ZXhpZj0iaHR0cDovL25zLmFkb2JlLmNvbS9leGlmLzEuMC8iPgogICAgICAgICA8ZXhpZjpQaXhlbFlEaW1lbnNpb24+ODc4PC9leGlmOlBpeGVsWURpbWVuc2lvbj4KICAgICAgICAgPGV4aWY6UGl4ZWxYRGltZW5zaW9uPjYzNDwvZXhpZjpQaXhlbFhEaW1lbnNpb24+CiAgICAgICAgIDxleGlmOlVzZXJDb21tZW50PlNjcmVlbnNob3Q8L2V4aWY6VXNlckNvbW1lbnQ+CiAgICAgIDwvcmRmOkRlc2NyaXB0aW9uPgogICA8L3JkZjpSREY+CjwveDp4bXBtZXRhPgr84EcuAAAAHGlET1QAAAACAAAAAAAAAbcAAAAoAAABtwAAAbcAACQ5cyK1tQAAJAVJREFUeAHs3cGNJceRBmDSBx1EJ3TSQSYIMmAdELCgSQsCckAGLGTCHnRaJ1YH+sDt0oDAdKKH9WdnVFVUvU/AQnzT8TKjvsip/A9N7ffffffdL2//5z8ECBAgQIAAAQIPE/j+7XkEvYcN1eMQIECAAAECBDYBQc85IECAAAECBAg8VEDQe+hgPRYBAgQIECBAQNBzBggQIECAAAECDxUQ9B46WI9FgAABAgQIEBD0nAECBAgQIECAwEMFBL2HDtZjESBAgAABAgQEPWeAAAECBAgQIPBQAUHvoYP1WAQIECBAgAABQc8ZIECAAAECBAg8VEDQe+hgPRYBAgQIECBAQNBzBggQIECAAAECDxUQ9B46WI9FgAABAgQIEBD0nAECBAgQIECAwEMFBL2HDtZjESBAgAABAgQEPWeAAAECBAgQIPBQAUHvoYP1WAQIECBAgAABQc8ZIECAAAECBAg8VEDQe+hgPRYBAgQIECBAQNBzBggQIECAAAECDxUQ9B46WI9FgAABAgQIEBD0nAECBAgQIECAwEMFBL2HDtZjESBAgAABAgQEPWeAAAECBAgQIPBQAUHvoYP1WAQIECBAgAABQc8ZIEDg3wI///zzlMTvfve7qfqk+OweZvfbe4ZVk8/0s7rn+EyzPVTvP/bjMwECawKC3pqfbxN4jECHC/7sHmb32xv2auj5TD+re47PNNtD9f5jPz4TILAmIOit+fk2gccIdLjgz+5hdr+9Ya+Gns/0s7rn+EyzPVTvP/bjMwECawKC3pqfbxN4jECHC/7sHmb32xv2auj5TD+re47PNNtD9f5jPz4TILAmIOit+fk2gdsK7F3o4wU+W5/AzK45W7/XQ/V6e/uNP9/bf6s/eg57PRy9/2jiMwECtQKCXq2n1QjcRqDDBX91D7P7Vw93b/9tv6OD1l4PR+9fbWo9AgTeCwh67z18IvAyAh0u+Kt7mN2/+nDs7b/td3TQ2uvh6P2rTa1HgMB7AUHvvYdPBF5GoMMFf3UPs/tXH469/bf9jg5aez0cvX+1qfUIEHgvIOi99/CJAIFvCMwGgm8s8+6Pj1jz3QY7H7rvv7V/dNCaNZit3xmBHxMgcLCAoHcwsOUJPEXgiAv+iDVnvLvvvz2LoDczUbUECIwCgt4o4jMBAh8KHBGKjljzw+a/8Yfd99/aFvS+MTx/TIBAJCDoRUyKCBA4IhQdsebMpLrvvz2LoDczUbUECIwCgt4o4jMBAv8WOCME7e2xN4oxBO3Vjz+/w/7jM+71PNaPzzx+nl1vtn7cz2cCBM4VEPTO9bYbgdsInHGh7+2xhzUbasb17rD/+Ix7PY/14zOPn2fXm60f9/OZAIFzBQS9c73tRuA2Amdc6Ht77GHNhppxvTvsPz7jXs9j/fjM4+fZ9Wbrx/18JkDgXAFB71xvuxG4jcAZF/reHntYs6FmXO8O+4/PuNfzWD8+8/h5dr3Z+nE/nwkQOFdA0DvX224EbiNwxoW+t8ce1myoGde7w/7jM+71PNaPzzx+nl1vtn7cz2cCBM4VEPTO9bYbgbYCV1zgs3vO1ldjV++/t97W/xjc9r4z1u8ZzK43W7+3v58TIHCsgKB3rK/VCdxG4IoLfHbP2fpq/Or999bb+h+D2953xvo9g9n1Zuv39vdzAgSOFRD0jvW1OoHbCFxxgc/uOVtfjV+9/956W/9jcNv7zli/ZzC73mz93v5+ToDAsQKC3rG+VidwG4ErLvDZPWfrq/Gr999bb+t/DG573xnr9wxm15ut39vfzwkQOFZA0DvW1+oE2grMXtiz9cmDz645W7/Xw+x6s/Wr+2/fH4Pb2T0cvf+ekZ8TILAmIOit+fk2gdsKzAaG2foEZnbN2fq9HmbXm61f3X/7/tFBa/aZZuv3DPycAIFjBQS9Y32tTqCtwOyFPVufPPjsmrP1ez3Mrjdbv7r/9n1Bb0/RzwkQ+C0BQe+3dPyMwIMFZkPLbH1CN7vmbP1eD7Przdav7r99X9DbU/RzAgR+S0DQ+y0dPyPwYIG90DL76GMgSb5/dQ9P238zn53D1QbJOVFDgMDnBQS9z9v5JoFbC3S44K/u4Wn7bwdS0Lv1X0vNEygXEPTKSS1I4B4CV4ecTenqHp62/2Yq6G0K/kOAwK8Cgt6vEv6bwIsJXB1yNu6re3ja/pupoLcp+A8BAr8KCHq/SvhvAi8mcHXI+Yh7tqfZUPPRnl//2d3233p/msHX8/DPBAisCwh664ZWIHBLgdlQs/eQFYFjtqeKPb9+rrvtv/X+NIOv5+GfCRBYFxD01g2tQOCWArOhZu8hKwLHbE8Ve379XHfbf+v9aQZfz8M/EyCwLiDorRtagcAtBWZDzd5DVgSO2Z4q9vz6ue62/9b70wy+nod/JkBgXUDQWze0AoFbCsyGmr2HrAgcsz1V7Pn1c91t/633pxl8PQ//TIDAuoCgt25oBQIECBAgQIBASwFBr+VYNEWAAAECBAgQWBcQ9NYNrUCAAAECBAgQaCkg6LUci6YIECBAgAABAusCgt66oRUIlAj873//x9Q6f/jL36fq94qv3n/rr0MPe05+ToAAgTsJCHp3mpZeHy1wdci5ev9tuB16ePQh83AECLycgKD3ciP3wF0Frg45V++/zaVDD13Ph74IECDwGQFB7zNqvkPgAIGrQ87V+2+kHXo4YLSWJECAwGUCgt5l9DYm8F7g6pBz9f6bRoce3k/FJwIECNxbQNC79/x0/yCBq0PO1ftvo+zQw4OOlEchQIDAd4KeQ0CgicDVIefq/bcxdOihyXHQBgECBEoEBL0SRosQWBe4OuRcvf8m2KGH9UlagQABAn0EBL0+s9DJiwv8z5//PCXwp3/8Y6p+r/jq/bf+OvSw5+TnBAgQuJOAoHenaen10QJXh5yr99+G26GHRx8yD0eAwMsJCHovN3IP3FXg6pBz9f7bXDr00PV86IsAAQKfERD0PqPmOwQOELg65Fy9/0baoYcDRmtJAgQIXCYg6F1Gb2MC7wWuDjlX779pdOjh/VR8IkCAwL0FBL17z0/3NxKY/TdKVx/tD3/5+7slzt5/2/zqHsb934H4QIAAgRcQEPReYMgesYfA2UFrDDln77+pX93DuH+Pk6ALAgQInCcg6J1nbacXFzg7aI0h5+z9t3Ff3cO4/4sfQY9PgMALCgh6Lzh0j3yNwNlBaww5Z++/KV/dw7j/NZO3KwECBK4TEPSus7fziwnM/osGqzzj/6Dy2ftv/V/dw7j/qqnvEyBA4G4Cgt7dJqbf2wqcHbTGkHP2/tugru5h3P+2h0fjBAgQ+KSAoPdJOF8jMCtwdtAaQ87Z+28+V/cw7j87M/UECBC4u4Cgd/cJ6v82AmcHrTHknL3/Npirexj3v81h0SgBAgSKBAS9IkjLECBAgAABAgS6CQh63SaiHwIECBAgQIBAkYCgVwRpGQIECBAgQIBANwFBr9tE9EOAAAECBAgQKBIQ9IogLUOAAAECBAgQ6CYg6HWbiH4IECBAgAABAkUCgl4RpGUIECBAgAABAt0EBL1uE9EPAQIECBAgQKBIQNArgrQMAQIECBAgQKCbgKDXbSL6IUCAAAECBAgUCQh6RZCWIUCAAAECBAh0ExD0uk1EPwQIECBAgACBIgFBrwjSMgQIECBAgACBbgKCXreJ6IcAAQIECBAgUCQg6BVBWoYAAQIECBAg0E1A0Os2Ef0QIECAAAECBIoEBL0iSMsQIECAAAECBLoJCHrdJqIfAgQIECBAgECRgKBXBGkZAgQIECBAgEA3AUGv20T0Q4AAAQIECBAoEhD0iiAtQ4AAAQIECBDoJiDodZuIfggQIECAAAECRQKCXhGkZQgQIECAAAEC3QQEvW4T0Q8BAgQIECBAoEhA0CuCtAwBAgQIECBAoJuAoNdtIvohQIAAAQIECBQJCHpFkJYhQIAAAQIECHQTEPS6TUQ/BAgQIECAAIEiAUGvCNIyBAgQIECAAIFuAoJet4nohwABAgQIECBQJCDoFUFahgABAgQIECDQTUDQ6zYR/RAgQIAAAQIEigQEvSJIyxAgQIAAAQIEugkIet0moh8CBAgQIECAQJGAoFcEaRkCBAgQIECAQDcBQa/bRPRDgAABAgQIECgSEPSKIC1DgAABAgQIEOgmIOh1m4h+CBAgQIAAAQJFAoJeEaRlCBAgQIAAAQLdBAS9bhPRDwECBAgQIECgSEDQK4K0DAECBAgQIECgm4Cg120i+iFAgAABAgQIFAkIekWQliFAgAABAgQIdBMQ9LpNRD8ECBAgQIAAgSIBQa8I0jIECBAgQIAAgW4Cgl63ieiHAAECBAgQIFAkIOgVQVqGAAECBAgQINBNQNDrNhH9ECBAgAABAgSKBAS9IkjLECBAgAABAgS6CQh63SaiHwIECBAgQIBAkYCgVwRpGQIECBAgQIBANwFBr9tE9EOAAAECBAgQKBIQ9IogLUOAAAECBAgQ6CYg6HWbiH4IECBAgAABAkUCgl4RpGUIECBAgAABAt0EBL1uE9EPAQIECBAgQKBIQNArgrQMAQIECBAgQKCbgKDXbSL6IUCAAAECBAgUCQh6RZCWIUCAAAECBAh0ExD0uk1EPwQIECBAgACBIgFBrwjSMgQIECBAgACBbgKCXreJ6IcAAQIECBAgUCQg6BVBWoYAAQIECBAg0E1A0Os2Ef0QIECAAAECBIoEBL0iSMsQIECAAAECBLoJCHrdJqIfAgQIECBAgECRgKBXBGkZAgQIECBAgEA3AUGv20T0Q4AAAQIECBAoEhD0iiAtQ4AAAQIECBDoJiDodZuIfggQIECAAAECRQKCXhGkZQgQIECAAAEC3QQEvW4T0Q8BAgQIECBAoEhA0CuCtAwBAgQIECBAoJuAoNdtIvohQIAAAQIECBQJCHpFkJYhQIAAAQIECHQTEPS6TUQ/BAgQIECAAIEiAUGvCNIyBAgQIECAAIFuAoJet4nohwABAgQIECBQJCDoFUFahgABAgQIECDQTUDQ6zYR/RAgQIAAAQIEigQEvSJIyxAgQIAAAQIEugkIet0moh8CBAgQIECAQJGAoFcEaRkCBAgQIECAQDcBQa/bRPRDgAABAgQIECgSEPSKIC1DgAABAgQIEOgmIOh1m4h+CBAgQIAAAQJFAoJeEaRlCBAgQIAAAQLdBAS9bhPRDwECBAgQIECgSEDQK4K0DAECBAgQIECgm4Cg120i+iFAgAABAgQIFAkIekWQliFAgAABAgQIdBMQ9LpNRD8ECBAgQIAAgSIBQa8I0jIECBAgQIAAgW4Cgl63ieiHAAECBAgQIFAkIOgVQVqGAAECBAgQINBNQNDrNhH9ECBAgAABAgSKBAS9IkjLECBAgAABAgS6CQh63SaiHwIECBAgQIBAkYCgVwRpGQIECBAgQIBANwFBr9tE9EOAAAECBAgQKBIQ9IogLUOAAAECBAgQ6CYg6HWbiH4IECBAgAABAkUCgl4RpGUIECBAgAABAt0EBL1uE9EPAQIECBAgQKBIQNArgrQMAQIECBAgQKCbgKDXbSL6IUCAAAECBAgUCQh6RZCWIUCAAAECBAh0ExD0uk1EPwQIECBAgACBIgFBrwjSMgQIECBAgACBbgKCXreJ6IcAAQIECBAgUCQg6BVBWoYAAQIECBAg0E1A0Os2Ef0QIECAAAECBIoEBL0iSMsQIECAAAECBLoJCHrdJqIfAgQIECBAgECRgKBXBGkZAgQIECBAgEA3ge9//OGnX7o1pR8CBAgQIECAAIF1AUFv3dAKBAgQIECAAIGWAoJey7FoigABAgQIECCwLiDorRtagQABAgQIECDQUkDQazkWTREgQIAAAQIE1gUEvXVDKxAgQIAAAQIEWgoIei3HoikCBAgQIECAwLqAoLduaAUCBAgQIECAQEsBQa/lWDRFgAABAgQIEFgXEPTWDa1AgAABAgQIEGgpIOi1HIumCBAgQIAAAQLrAoLeuqEVCBAgQIAAAQItBQS9lmPRFAECBAgQIEBgXeD7tyV+WV/GCgQIECBAgAABAt0EBL1uE9EPAQIECBAgQKBIQNArgrQMAQIECBAgQKCbgKDXbSL6IUCAAAECBAgUCQh6RZCWIUCAAAECBAh0ExD0uk1EPwQIECBAgACBIgFBrwjSMgQIECBAgACBbgKCXreJ6IcAAQIECBAgUCQg6BVBWoYAAQIECBAg0E1A0Os2Ef0QIECAAAECBIoEBL0iSMsQIECAAAECBLoJCHrdJqIfAgQIECBAgECRgKBXBGkZAgQIECBAgEA3AUGv20T0Q4AAAQIECBAoEhD0iiAtQ4AAAQIECBDoJiDodZuIfggQIECAAAECRQKCXhGkZQgQIECAAAEC3QQEvWAi//rnX4Oqb5f8/o9/+/YP/YQAAQIECLyYgHv1vIELeoG1AxkgKSFAgAABAqGAezWEKigT9AJEBzJAUkKAAAECBEIB92oIVVAm6AWIDmSApIQAAQIECIQC7tUQqqBM0CtAtAQBAgQIECBAoKOAoNdxKnoiQIAAAQIECBQICHoFiJYgQIAAAQIECHQUEPQ6TkVPBAgQIECAAIECAUEvQPRLowGSEgIECBAgEAq4V0OogjJBL0B0IAMkJQQIECBAIBRwr4ZQBWWCXoDoQAZISggQIECAQCjgXg2hCsoEvQDRgQyQlBAgQIAAgVDAvRpCFZQJegGiAxkgKSFAgAABAqGAezWEKigT9AoQLUGAAAECBAgQ6Cgg6HWcip4IECBAgAABAgUCgl4BoiUIECBAgAABAh0FBL2OU9ETAQIECBAgQKBAQNALEP3SaICkhAABAgQIhALu1RCqoEzQCxAdyABJCQECBAgQCAXcqyFUQZmgFyA6kAGSEgIECBAgEAq4V0OogjJBL0B0IAMkJQQIECBAIBRwr4ZQBWWCXgGiJQgQIECAAAECHQUEvY5T0RMBAgQIECBAoEBA0CtAtAQBAgQIECBAoKOAoNdxKnoiQIAAAQIECBQICHoBol8aDZCUECBAgACBUMC9GkIVlAl6AaIDGSApIUCAAAECoYB7NYQqKBP0AkQHMkBSQoAAAQIEQgH3aghVUCboBYgOZICkhAABAgQIhALu1RCqoEzQCxAdyABJCQECBAgQCAXcqyFUQZmgV4BoCQIECBAgQIBARwFBr+NU9ESAAAECBAgQKBAQ9AoQLUGAAAECBAgQ6Cgg6HWcip4IECBAgAABAgUCgl6A6JdGAyQlBAgQIEAgFHCvhlAFZYJegOhABkhKCBAgQIBAKOBeDaEKygS9ANGBDJCUECBAgACBUMC9GkIVlAl6AaIDGSApIUCAAAECoYB7NYQqKBP0ChAtQYAAAQIECBDoKCDodZyKnggQIECAAAECBQKCXgGiJQgQIECAAAECHQUEvY5T0RMBAgQIECBAoEBA0AsQ/dJogKSEAAECBAiEAu7VEKqgTNALEB3IAEkJAQIECBAIBdyrIVRBmaAXIDqQAZISAgQIECAQCrhXQ6iCMkEvQHQgAyQlBAgQIEAgFHCvhlAFZYJegOhABkhKCBAgQIBAKOBeDaEKygS9AkRLECBAgAABAgQ6Cgh6HaeiJwIECBAgQIBAgYCgV4BoCQIECBAgQIBARwFBr+NU9ESAAAECBAgQKBAQ9AJEvzQaICkhQIAAAQKhgHs1hCooE/QCRAcyQFJCgAABAgRCAfdqCFVQJugFiA5kgKSEAAECBAiEAu7VEKqgTNALEB3IAEkJAQIECBAIBdyrIVRBmaBXgGgJAgQIECBAgEBHAUGv41T0RIAAAQIECBAoEBD0ChAtQYAAAQIECBDoKCDodZyKnggQIECAAAECBQKCXoDol0YDJCUECBAgQCAUcK+GUAVlgl6A6EAGSEoIECBAgEAo4F4NoQrKBL0A0YEMkJQQIECAAIFQwL0aQhWUCXoBogMZICkhQIAAAQKhgHs1hCooE/QCRAcyQFJCgAABAgRCAfdqCFVQJugVIFqCAAECBAgQINBRQNDrOBU9ESBAgAABAgQKBAS9AkRLECBAgAABAgQ6Cgh6HaeiJwIECBAgQIBAgYCgFyD6pdEASQkBAgQIEAgF3KshVEGZoBcgOpABkhICBAgQIBAKuFdDqIIyQS9AdCADJCUECBAgQCAUcK+GUAVlgl6A6EAGSEoIECBAgEAo4F4NoQrKBL0CREsQIECAAAECBDoKCHodp6InAgQIECBAgECBgKBXgGgJAgQIECBAgEBHAUGv41T0RIAAAQIECBAoEBD0ChAtQYAAAQIECBDoKCDoBVPxbwcFSEoIECBAgEAo4F4NoQrKBL0A0YEMkJQQIECAAIFQwL0aQhWUCXoBogMZICkhQIAAAQKhgHs1hCooE/QCRAcyQFJCgAABAgRCAfdqCFVQJugVIFqCAAECBAgQINBRQNDrOBU9ESBAgAABAgQKBAS9AkRLECBAgAABAgQ6Cgh6HaeiJwIECBAgQIBAgYCgFyD6pdEASQkBAgQIEAgF3KshVEGZoBcgOpABkhICBAgQIBAKuFdDqIIyQS9AdCADJCUECBAgQCAUcK+GUAVlgl6A6EAGSEoIECBAgEAo4F4NoQrKBL0CREsQIECAAAECBDoKCHodp6InAgQIECBAgECBgKBXgGgJAgQIECBAgEBHAUGv41T0RIAAAQIECBAoEBD0ChAtQYAAAQIECBDoKCDoBVPxbwcFSEoIECBAgEAo4F4NoQrKBL0A0YEMkJQQIECAAIFQwL0aQhWUCXoBogMZICkhQIAAAQKhgHs1hCooE/QCRAcyQFJCgAABAgRCAfdqCFVQJugVIFqCAAECBAgQINBRQNDrOBU9ESBAgAABAgQKBAS9AkRLECBAgAABAgQ6Cgh6HaeiJwIECBAgQIBAgYCgFyD6pdEASQkBAgQIEAgF3KshVEGZoBcgOpABkhICBAgQIBAKuFdDqIIyQS9AdCADJCUECBAgQCAUcK+GUAVlgl6A6EAGSEoIECBAgEAo4F4NoQrKBL0CREsQIECAAAECBDoKCHodp6InAgQIECBAgECBgKBXgGgJAgQIECBAgEBHAUGv41T0RIAAAQIECBAoEBD0ChAtQYAAAQIECBDoKCDoBVPxbwcFSEoIECBAgEAo4F4NoQrKBL0A0YEMkJQQIECAAIFQwL0aQhWUCXoBogMZICkhQIAAAQKhgHs1hCooE/QCRAcyQFJCgAABAgRCAfdqCFVQJugVIFqCAAECBAgQINBRQNDrOBU9ESBAgAABAgQKBAS9AkRLECBAgAABAgQ6Cgh6HaeiJwIECBAgQIBAgYCgFyD6pdEASQkBAgQIEAgF3KshVEGZoBcgOpABkhICBAgQIBAKuFdDqIIyQS9AdCADJCUECBAgQCAUcK+GUAVlgl6A6EAGSEoIECBAgEAo4F4NoQrKBL0CREsQIECAAAECBDoKCHodp6InAgQIECBAgECBgKBXgGgJAgQIECBAgEBHAUGv41T0RIAAAQIECBAoEBD0ChAtQYAAAQIECBDoKCDoBVPxbwcFSEoIECBAgEAo4F4NoQrKBL0A0YEMkJQQIECAAIFQwL0aQhWUCXoBogMZICkhQIAAAQKhgHs1hCooE/QCRAcyQFJCgAABAgRCAfdqCFVQJugVIFqCAAECBAgQINBRQNDrOBU9ESBAgAABAgQKBAS9AkRLECBAgAABAgQ6Cgh6HaeiJwIECBAgQIBAgYCgFyD6pdEASQkBAgQIEAgF3KshVEGZoBcgOpABkhICBAgQIBAKuFdDqIIyQS9AdCADJCUECBAgQCAUcK+GUAVlgl6A6EAGSEoIECBAgEAo4F4NoQrKBL0CREsQIECAAAECBDoKCHodp6InAgQIECBAgECBgKBXgGgJAgQIECBAgEBHAUGv41T0RIAAAQIECBAoEBD0ChAtQYAAAQIECBDoKCDoBVPxbwcFSEoIECBAgEAo4F4NoQrKBL0A0YEMkJQQIECAAIFQwL0aQhWUCXoBogMZICkhQIAAAQKhgHs1hCooE/QCRAcyQFJCgAABAgRCAfdqCFVQJugVIFqCAAECBAgQINBRQNDrOBU9ESBAgAABAgQKBAS9AkRLECBAgAABAgQ6Cgh6HaeiJwIECBAgQIBAgYCgFyD6pdEASQkBAgQIEAgF3KshVEGZoBcgOpABkhICBAgQIBAKuFdDqIIyQS9AdCADJCUECBAgQCAUcK+GUAVlgl6A6EAGSEoIECBAgEAo4F4NoQrKBL0CREsQIECAAAECBDoKCHodp6InAgQIECBAgECBgKBXgGgJAgQIECBAgEBHAUGv41T0RIAAAQIECBAoEBD0ChAtQYAAAQIECBDoKCDodZyKnggQIECAAAECBQKCXgGiJQgQIECAAAECHQUEvY5T0RMBAgQIECBAoEBA0CtAtAQBAgQIECBAoKPA9z/+8NMvHRvTE4GnCfzX//3nrR/p7V1x6/6f0rxz9JRJeg4C5wgIeuc424XAdy5oh6BCwDmqULQGgdcREPReZ9ae9GIBF/TFA3jI9s7RQwbpMQicJCDonQRtGwIuaGegQsA5qlC0BoHXERD0XmfWnvRiARf0xQN4yPbO0UMG6TEInCQg6J0EbRsCLmhnoELAOapQtAaB1xEQ9F5n1p70YgEX9MUDeMj2ztFDBukxCJwkIOidBG0bAi5oZ6BCwDmqULQGgdcREPReZ9ae9GIBF/TFA3jI9s7RQwbpMQicJCDonQRtGwIuaGegQsA5qlC0BoHXERD0XmfWnvRiARf0xQN4yPbO0UMG6TEInCQg6J0EbRsCLmhnoELAOapQtAaB1xEQ9F5n1p70YgEX9MUDeMj2ztFDBukxCJwkcHjQu/tL6aQ52IbASwj8+MNPS8959fvk7v0v4T/oy//651/fPc3v//i3d599IHCGwOr7JO1R0Eul1BEgsCyw+mIT9JZHYIE3AUHPMeggsPo+TJ9B0Eul1BEgsCyw+mIT9JZHYIE3AUHPMeggsPo+TJ9B0Eul1BEgsCyw+mIT9JZHYIE3AUHPMeggsPo+TJ9B0Eul1BEgsCyw+mIT9JZHYIE3AUHPMeggsPo+TJ9B0Eul1BEgsCyw+mIT9JZHYIE3AUHPMeggsPo+TJ9B0Eul1BEgsCyw+mIT9JZHYIE3AUHPMeggsPo+TJ9B0Eul1BEgsCyw+mIT9JZHYIE3AUHPMeggsPo+TJ9B0Eul1BEgsCyw+mIT9JZHYIE3AUHPMeggsPo+TJ9B0Eul1BEgsCyw+mIT9JZHYIE3AUHPMeggsPo+TJ9B0Eul1BEgsCyw+mIT9JZHYIE3AUHPMeggsPo+TJ9B0Eul1BEgsCyw+mIT9JZHYIE3AUHPMeggsPo+TJ/hkUFv/Eu8h+H/z+GekJ8TqBFYfbEJejVzePVVxjvCHfDqJ+Ka5199H6ZdC3pvUv6Sp8dFHYE1gdUXm6C35u/bXwQEPSehg8Dq+zB9BkHvTUrQS4+LOgJrAqsvNkFvzd+3vwgIek5CB4HV92H6DILem5Sglx4XdQTWBFZfbILemr9vfxEQ9JyEDgKr78P0GQS9NylBLz0u6gisCay+2AS9NX/f/iIg6DkJHQRW34fpMzwi6I1/adOH/1ad4PctGX9OYE1g9cUm6K35+/YXgfHO8M53Mq4QWH0fpj0Leh9I+Uv/AYo/IlAgsPpiE/QKhmAJ//MqzkALgdX3YfoQgt4HUoLeByj+iECBwOqLTdArGIIlBD1noIXA6vswfQhB7wMpQe8DFH9EoEBg9cUm6BUMwRKCnjPQQmD1fZg+xC2D3vj7FePDjkFtrN/7+d564899JkAgEzjrxZZ1c37V1UH1/CfuuePendCza109TeCs96Gg93Zyxr/042Eag+H4c58JEMgEznqxZd2cXyXonW/+0Y7jO987/iMlf3a0wFnvQ0HvbZLjX/pxuF4Co4jPBD4ncNaL7XPdHf8tQe9442SH8Z3vHZ+oqakWOOt9KOi9TW78Sz8O00tgFPGZwOcEznqxfa67478l6B1vnOwwvvO94xM1NdUCZ70PHxH0qv+SeglUH2frEfgicNaLrau3oNdjMt7xPebw6l2c9T4U9D44aV4CH6D4IwIFAme92ApaPWQJQe8Q1ulFveOnyXzhAIGz3oeC3gfD8xL4AMUfESgQOOvFVtDqIUsIeoewTi/qHT9N5gsHCJz1PhT0Phiel8AHKP6IQIHAWS+2glYPWULQO4R1elHv+GkyXzhA4Kz34SOC3ug//s7e3l/q8ed7640/95kAgUxg9cV2dVC6e//ZlJ5fNb7zxzvj+QKesIPA6vskfYb/BwAA//+vvZrYAAA5HUlEQVTt3TGuLMly3vE7e6BBAlqCQDk06AqQQdCUQVsABYGQQa6FjiAQIiCbhkziGQLkyniOCBlcgADJ4B5GnRzOYU/N7VNRJ7IzMrN+5Uz3rejMiH98GfkB7868H/7s9/7qx29vfP7z//0P3Vf/f7/900/X/N0/+OtfvD/Gn73/xY8fX47xx/e+I4BAjMBj3sQCX0S9Y5682Oq7f7x6/t8t6oZ/eHYn3BCJkgsIZOdJNOUfGL1v346H/giP0TsS8R2BrxHIDjZG72vc/eqXBI4z34z/JR/fxhDIzsNolozeg9Tx0B/hGQJHIr4j8DUC2cHG6H2Nu1/9ksBx5pvxv+Tj2xgC2XkYzZLRe5A6HvojPEPgSMR3BL5GIDvYGL2vcferXxI4znwz/pd8fBtDIDsPo1kuafSOxR0P7fH91e8O/VVi4hGIEcgONkYvxlnU5wSOd4aZ/zkvb99DIDsPo1kxet8h5dB/B4o/QqADgexgY/Q6NMESv/pfccx8oqggkJ2H0ZwZve+Qcui/A8UfIdCBQHawMXodmmAJRo8GpiCQnYfRIhi975Bi9L4DxR8h0IFAdrAxeh2aYAlGjwamIJCdh9EitjB6x2KPf//i+P74nbE7EvEdgfcQyA42Ru89fbnbqsc7wh1wNwXMUW92HkarYPQepBzyqFzEIZAjkB1sjF6Ov1//RIDRo4QZCGTnYbQGRu9BitGLykUcAjkC2cHG6OX4+/VPBBg9SpiBQHYeRmtg9B6kGL2oXMQhkCOQHWyMXo6/X/9EgNGjhBkIZOdhtAZG70GK0YvKRRwCOQLZwcbo5fj79U8EGD1KmIFAdh5Ga2D0HqQYvahcxCGQI5AdbIxejr9f/0SA0aOEGQhk52G0BkbvQYrRi8pFHAI5AtnBxujl+Pv1TwQYPUqYgUB2HkZrYPQepBi9qFzEIZAjkB1sjF6Ov1//RIDRo4QZCGTnYbQGRu9BitGLykUcAjkC2cHG6OX4+/VPBBg9SpiBQHYeRmvY0ugdi3eoj0R8R6CGQHawMXo1fdttV3fCbh1ds57sPIxWzehFSYlDAIE0gexgY/TSLbDAgwCjRwYzEMjOw2gNjF6UlDgEEEgTyA42Ri/dAgs8CDB6ZDADgew8jNbA6EVJiUMAgTSB7GBj9NItsMCDAKNHBjMQyM7DaA2MXpSUOAQQSBMYNdjSib5pgWqj+qaylluW0VuuZVsmPGoeMnpbykdRCMxJYNRgm7P6b98YvTk6w+jN0Ye7ZzFqHjJ6d1ea+hEYSGDUYBtY0qWtGL1LuN4WzOi9Da2FLxAYNQ8ZvQtNEYoAAjkCowZbLsv3/ZrRex/bKyszeldoiX0XgVHzkNF7VwetiwACvyIwarD9auNJ/oDRm6MRjN4cfbh7FqPmIaN3d6WpH4GBBEYNtoElXdqK0buE623BjN7b0Fr4AoFR85DRu9AUoQggkCMwarDlsnzfrxm997G9sjKjd4WW2HcRGDUPGb13ddC6CCDwKwKjBtuvNp7kDxi9ORrB6M3Rh7tnMWoebmn0jof4KKbf/YO/Pv6R7wggMIBAdrBVG6XV8x/Q4iW2ON4R7oQl2rZdktl5EgXC6EVJiUMAgTSB7GBj9NItsMCDAKNHBjMQyM7DaA2MXpSUOAQQSBPIDjZGL90CCzwIMHpkMAOB7DyM1sDoRUmJQwCBNIHsYGP00i2wwIMAo0cGMxDIzsNoDYxelJQ4BBBIE8gONkYv3QILPAgwemQwA4HsPIzWsKXROxbvUB+J+I5ADYHsYGP0avq2267uhN06umY92XkYrZrRi5IShwACaQLZwcbopVtggQcBRo8MZiCQnYfRGhi9KClxCCCQJpAdbIxeugUWeBBg9MhgBgLZeRitgdGLkhKHAAJpAtnBxuilW2CBBwFGjwxmIJCdh9EatjR6x0N8hOE/jnkk4jsCYwhkBxujN6ZPu+9yvCPcCbt3fM76svMwWhWjFyUlDgEE0gSyg43RS7fAAg8CjB4ZzEAgOw+jNTB6UVLiEEAgTSA72Bi9dAss8CDA6JHBDASy8zBaA6MXJSUOAQTSBLKDjdFLt8ACDwKMHhnMQCA7D6M1bGn0jsU71EciviNQQyA72Bi9mr7ttqs7YbeOrllPdh5Gq2b0oqTEIYBAmkB2sDF66RZY4EGA0SODGQhk52G0BkYvSkocAgikCWQHG6OXboEFHgQYPTKYgUB2HkZrYPSipMQhgECaQHawMXrpFljgQYDRI4MZCGTnYbSGWxi9KAxxCCDwXgLZwcbovbc/d1md0btLp+euMzsPo9UxelFS4hBAIE0gO9gYvXQLLPAgwOiRwQwEsvMwWgOjFyUlDgEE0gSyg43RS7fAAg8CjB4ZzEAgOw+jNTB6UVLiEEAgTSA72Bi9dAss8CDA6JHBDASy8zBaA6MXJSUOAQTSBLKDjdFLt8ACDwKMHhnMQCA7D6M1MHpRUuIQQCBNYNRgSyf6pgWqjeqbylpuWUZvuZZtmfCoecjobSkfRSEwJ4FRg23O6r99Y/Tm6AyjN0cf7p7FqHnI6N1daepHYCCBUYNtYEmXtmL0LuF6WzCj9za0Fr5AYNQ8ZPQuNEUoAgjkCIwabLks3/drRu99bK+szOhdoSX2XQRGzUNG710dtC4CCPyKwKjB9quNJ/kDRm+ORjB6c/Th7lmMmoeM3t2Vpn4EBhIYNdgGlnRpK0bvEq63BTN6b0Nr4QsERs1DRu9CU4QigECOwKjBlsvyfb9m9N7H9srKjN4VWmLfRWDUPGT03tVB6yKAwK8IjBpsv9p4kj9g9OZoBKM3Rx/unsWoecjo3V1p6kdgIIHsYKs2SqvnP7DVU2/F6E3dntskl50nUVCMXpSUOAQQSBPIDjZGL90CCzwIMHpkMAOB7DyM1sDoRUmJQwCBNIHsYGP00i2wwIMAo0cGMxDIzsNoDYxelJQ4BBBIE8gONkYv3QILPAgwemQwA4HsPIzWwOhFSYlDAIE0gexgY/TSLbDAgwCjRwYzEMjOw2gNjF6UlDgEEEgTyA42Ri/dAgs8CDB6ZDADgew8jNbA6EVJiUMAgTSB7GBj9NItsMCDAKNHBjMQyM7DaA2MXpSUOAQQSBPIDjZGL90CCzwIMHpkMAOB7DyM1sDoRUmJQwCBNIHsYGP00i2wwIMAo0cGMxDIzsNoDYxelJQ4BBBIE8gONkYv3QILPAgwemQwA4HsPIzWwOhFSYlDAIE0gexgY/TSLbDAgwCjRwYzEMjOw2gNjF6UlDgEEEgTyA42Ri/dAgs8CDB6ZDADgew8jNbA6EVJiUMAgTSB7GBj9NItsMCDAKNHBjMQyM7DaA2MXpSUOAQQSBPIDjZGL90CCzwIMHpkMAOB7DyM1sDoRUmJQwCBNIHsYGP00i2wwIMAo0cGMxDIzsNoDYxelJQ4BBBIE8gONkYv3QILPAgwemQwA4HsPIzWwOhFSYlDAIE0gexgY/TSLbDAgwCjRwYzEMjOw2gNjF6UlDgEEEgTyA42Ri/dAgs8CDB6ZDADgew8jNbA6EVJiUMAgTSB7GBj9NItsMCDAKNHBjMQyM7DaA2MXpSUOAQQSBPIDjZGL90CCzwIMHpkMAOB7DyM1sDoRUmJQwCBNIHsYGP00i2wwIMAo0cGMxDIzsNoDYxelJQ4BBBIExg12NKJvmmBaqP6prKWW5bRW65lWyY8ah4yelvKR1EIzElg1GCbs/pv3xi9OTrD6M3Rh7tnMWoeMnp3V5r6ERhIYNRgG1jSpa0YvUu43hbM6L0NrYUvEBg1Dxm9C00RigACOQKjBlsuy/f9mtF7H9srKzN6V2iJfReBUfOQ0XtXB62LAAK/IjBqsP1q40n+gNGboxGM3hx9uHsWo+Yho/cGpf3d3/7JpVV//4//5lK8YARWJTBqsM3Kh9GbozOM3hx9uHsWo+Yho/cGpTF6b4BqyS0IjBpss8Ji9OboDKM3Rx/unsWoecjovUFpjN4boFpyCwKjBtussBi9OTrD6M3Rh7tnMWoeMnpvUBqj9waoltyCwKjBNissRm+OzjB6c/Th7lmMmoeM3huUxui9AaoltyCQHWzVRmn1/LcQUYciGL0OEC2RJpCdJ9EEGL0oqQtxjN4FWEJvRSA72Bi9W8nlbcUyem9Da+ELBLLzMLoVoxcldSGO0bsAS+itCGQHG6N3K7m8rVhG721oLXyBQHYeRrdi9KKkLsQxehdgCb0VgexgY/RuJZe3FcvovQ2thS8QyM7D6FaMXpTUhbj/+Ud/dCH627c//M1vLsULRmBVAtnBxuit2vm58mb05urHXbPJzsMoN0YvSupCHKN3AZbQWxHIDjZG71ZyeVuxjN7b0Fr4AoHsPIxuxehFSV2IY/QuwBJ6KwLZwcbo3UoubyuW0XsbWgtfIJCdh9GtGL0oqQtxjN4FWEJvRSA72Bi9W8nlbcUyem9Da+ELBLLzMLoVoxcl9RR39V+2ePrplz76/8L9EjY/mpBAdrAxehM2dcGUGL0Fm7Zhytl5GEXC6EVJPcUxek8wfETgAoHsYGP0LsAW+pIAo/cSjRcDCWTnYTRVRi9K6imO0XuC4SMCFwhkBxujdwG20JcEGL2XaLwYSCA7D6OpMnpRUk9xjN4TDB8RuEAgO9gYvQuwhb4kwOi9ROPFQALZeRhNldGLknqKY/SeYPiIwAUC2cHG6F2ALfQlAUbvJRovBhLIzsNoqoxelNRTHKP3BMNHBC4QyA42Ru8CbKEvCTB6L9F4MZBAdh5GU2X0oqSe4hi9Jxg+InCBQHawMXoXYAt9SYDRe4nGi4EEsvMwmiqjFyX1FMfoPcHwEYELBLKDjdG7AFvoSwKM3ks0XgwkkJ2H0VQZvSippzhG7wmGjwhcIJAdbIzeBdhCXxJg9F6i8WIggew8jKbK6EVJfRJ39f8J45Ol/vHVH/7mN2ch3iOwJIHsYGP0lmz7dEkzetO15JYJZedhFBqjFyX1SRyj9wkcrxB4IpAdbIzeE0wfv0yA0fsyOj/sSCA7D6OpMHpRUp/EMXqfwPEKgScC2cHG6D3B9PHLBBi9L6Pzw44EsvMwmgqjFyX1SRyj9wkcrxB4IpAdbIzeE0wfv0yA0fsyOj/sSCA7D6OpMHpRUhfi/s9f/MWF6G/f/sVf/uUv4o+/P77/RbAvCCxEYNRgmxVJtVGdlcvovBi90cTt9z0Co+Yho/c9+sk/Oxq1s+WORu74++P7s/W8R2BWAqMG26z1M3pzdIbRm6MPd89i1Dxk9N6gtKNRO9viaOSOvz++P1vPewRmJTBqsM1aP6M3R2cYvTn6cPcsRs1DRu8NSjsatbMtjkbu+Pvj+7P1vEdgVgKjBtus9TN6c3SG0ZujD3fPYtQ8ZPQ6KK33v4xxTMl/V+9IxPdVCYwabLPyYfTm6AyjN0cf7p7FqHnI6HVQGqPXAaIlbkFg1GCbFSajN0dnGL05+nD3LEbNQ0avg9IYvQ4QLXELAqMG26wwGb05OsPozdGHu2cxah4yeh2Uxuh1gGiJWxAYNdhmhcnozdEZRm+OPtw9i1HzkNHroDRGrwNES9yCwKjBNitMRm+OzjB6c/Th7lmMmoeM3heU9m5jd0zJv4xxJOL7qgSyg63aKK2e/6q66Z03o9ebqPW+QiA7T6J7MnpRUk9xjN4TDB8RuEAgO9gYvQuwhb4kwOi9ROPFQALZeRhNldGLknqKY/SeYPiIwAUC2cHG6F2ALfQlAUbvJRovBhLIzsNoqoxelNRTHKP3BMNHBC4QyA42Ru8CbKEvCTB6L9F4MZBAdh5GU2X0oqSe4hi9Jxg+InCBQHawMXoXYAt9SYDRe4nGi4EEsvMwmiqjFyX1FMfoPcHwEYELBLKDjdG7AFvoSwKM3ks0XgwkkJ2H0VQZvSippzhG7wmGjwhcIJAdbIzeBdhCXxJg9F6i8WIggew8jKbK6EVJPcUxek8wfETgAoHsYGP0LsAW+pIAo/cSjRcDCWTnYTRVRi9K6inu3UbPfzfvCbaPWxHIDjZGbys5lBXD6JWht/ETgew8fFrq04+M3qd4vv+S0fs+F3+KwBmB7GBj9M4Iex8hwOhFKIl5N4HsPIzmx+hFST3FMXpPMHxE4AKB7GBj9C7AFvqSAKP3Eo0XAwlk52E0VUYvSuopjtF7guEjAhcIZAcbo3cBttCXBBi9l2i8GEggOw+jqTJ6UVJPcYzeEwwfEbhAIDvYGL0LsIW+JMDovUTjxUAC2XkYTZXRi5J6imP0nmD4iMAFAtnBxuhdgC30JQFG7yUaLwYSyM7DaKqMXpTUUxyj9wTDRwQuEMgONkbvAmyhLwkwei/ReDGQQHYeRlNl9KKknuIYvScYPiJwgUB2sDF6F2ALfUmA0XuJxouBBLLzMJoqoxcl9RTH6D3B8BGBCwSyg43RuwBb6EsCjN5LNF4MJJCdh9FUGb0oqU/iehs//8HkT2B7hQACCCCAwAYEGL2FmsjoLdQsqSKAAAIIIDABAUZvgiZEU2D0oqTEIYAAAggggEAjwOgtpANGb6FmSRUBBBBAAIEJCGxj9CZg+fYU/t2/+m9d9/iv/+vfdl2vx2LVfwm+Rw2rr5EdCtkeZvdv/LM53L2HPRhm+3j3Hs6gwWwPZ6hBDuMIvP1fxhhXSt1OjF4d+zvtnB3u2Qs6u3/rVTaH1fs9A8NsDnfv4QwazPZwhhrkMI4Ao9eBNaPXAaIlTglkh3v2gs7u3wrM5nAKafKAGRhmc7h7D2eQWLaHM9Qgh3EEGL0OrBm9DhAtcUogO9yzF3R2/1ZgNodTSJMHzMAwm8PdeziDxLI9nKEGOYwjwOh1YH1m9I5/5+5qfIcU00sY7mmEFuhAoPqCcw46NNESaQLV5yBdgAWGEmD0OuC+atyuxndIMb2ECy6N0AIdCFRfcM5BhyZaIk2g+hykC7DAUAKMXgfcV43b1fgOKaaXcMGlEVqgA4HqC8456NBES6QJVJ+DdAEWGEqA0euA+6pxuxrfIcX0Ei64NEILdCBQfcE5Bx2aaIk0gepzkC7AAkMJMHodcP/Hv/7vn67yn/703/zi/Vn8L4IfX46/P74f8d0FN4Ly53sY7p/z8XYMAbNgDOfPdjELPqPj3ZEAo3ck8oXvZ8btaNTO4o8pHH9/fD/iu+E+gvLnexjun/PxdgwBs2AM5892MQs+o+PdkQCjdyTyhe9nxu1o1M7ijykcf398P+K74T6C8ud7GO6f8/F2DAGzYAznz3YxCz6j492RAKN3JPKF72fG7WjUzuKPKRx/f3w/4rvhPoLy53sY7p/z8XYMAbNgDOfPdjELPqPj3ZEAo3ck8oXvZ8btaNTO4o8pHH9/fD/iu+E+gvLnexjun/PxdgwBs2AM5892MQs+o+PdkQCjdyTyne9ng+3v/vZPvvOrf/6j3//jv/nnL49PZ/G/CH586WH0zmo47uk7AjMSqL7gnKMZVSGnqwR6nKPqs9CjhqvcVo1n9AKdOxP0mXFj9AKQhSAQIFA93M9mQaAEIQiUE+hxjqrPQo8ayhsxKAFGLwD6TNCMXgCiEAQ6EKge7mezoEOJlkDg7QR6nKPqs9CjhreDnmQDRi/QiDNBM3oBiEIQ6ECgerifzYIOJVoCgbcT6HGOqs9CjxreDnqSDRi9QCOOgj4zdsclj//T7fH92fcegj7WcLan9/sRyOqoh4ZmyCHT2RnynyGHDEO/rSeQ1VCroMc8yJDoUUNm/5V+y+gFunUUNKMXgCZkOgLZwXg8B18pcIYcvpL3z7+ZIf8ZcviZh3+uSSCroVZ1j3mQodejhsz+K/2W0Qt06yhoRi8ATch0BLKD8XgOvlLgDDl8Je+ffzND/jPk8DMP/1yTQFZDreoe8yBDr0cNmf1X+i2jF+jWUdCMXgCakOkIZAfj8Rx8pcAZcvhK3j//Zob8Z8jhZx7+uSaBrIZa1T3mQYZejxoy+6/0W0Yv0K2joBm9ADQhCCCAAAJTEuhhko734uhCe9QwOueq/Ri9APmjoBm9ADQhCCCAAAJTEuhhko734uhCe9QwOueq/Ri9APmjoBm9ADQhCCCAAAJTEuhhko734uhCe9QwOueq/Ri9APmjoBm9ADQhCCCAAAJTEuhhko734uhCe9QwOueq/Ri9APmjoBm9ADQhCCCAAAJTEuhhko734uhCe9QwOueq/Ri9APkdBF1dQwCzEAQQQACBAQR6mKTqO6VHDQNQT7EFoxdoww6Crq4hgFkIAggggMAAAj1MUvWd0qOGAain2ILRC7RhB0FX1xDALAQBBBBAYACBHiap+k7pUcMA1FNswegF2rCDoKtrCGAWggACCCAwgEAPk1R9p/SoYQDqKbZg9AJt2EHQ1TUEMAtBAAEEEBhAoIdJqr5TetQwAPUUWzB6gTbsIOjqGgKYhSCAAAIIDCDQwyRV3yk9ahiAeootGL1AG3YQdHUNAcxCEEAAAQQGEOhhkqrvlB41DEA9xRaMXqANOwi6uoYAZiEIIIAAAgMI9DBJ1XdKjxoGoJ5iC0Zvija8P4nqQ/n+Cu2AAAIIIBAhwCRFKO0Tw+jt08tPK2H0PsXjJQIIIHAbAozebVr9j4UyejfpN6N3k0YrEwEEEDghwOidANrsNaO3WUNflcPovSLjzxFAAIF7EWD07tVvRu8m/Wb0btJoZSKAAAInBBi9E0CbvWb0Nmvoq3IYvVdk/DkCCCBwLwKM3r36zejdpN+M3k0arUwEEEDghACjdwJos9eM3mYNfVUOo/eKjD9HAAEE7kWA0btXvxm9m/Sb0btJo5WJAAIInBBg9E4Abfaa0Qs0tNok9TiU1TUEMAtBAAEEEBhAYIc7pUcNA1BPsQWjF2hDtUnqIejqGgKYhSCAAAIIDCCww53So4YBqKfYgtELtKHaJPUQdHUNAcxCEEAAAQQGENjhTulRwwDUU2zB6AXaUG2Segi6uoYAZiEIIIAAAgMI7HCn9KhhAOoptmD0Am2oNkk9BF1dQwCzEAQQQACBAQR2uFN61DAA9RRbMHqBNlSbpB6Crq4hgFkIAggggMAAAjvcKT1qGIB6ii0YvUAbqk1SD0FX1xDALAQBBBBAYACBHe6UHjUMQD3FFoxeoA3VJqmHoKtrCGAWggACCCAwgMAOd0qPGgagnmILRi/QhmqT1EPQ1TUEMAtBAAEEEBhAYIc7pUcNA1BPsQWjF2hDtUnqIejqGgKYhSCAAAIIDCCww53So4YBqKfYgtELtKHaJPUQdHUNAcxCEEAAAQQGENjhTulRwwDUU2zB6AXaUG2Segi6uoYAZiEIIIAAAgMI7HCn9KhhAOoptmD0Am2oNkk9BF1dQwCzEAQQQACBAQR2uFN61DAA9RRbMHqBNlSbpB6Crq4hgFkIAggggMAAAjvcKT1qGIB6ii0YvUAbqk1SD0FX1xDALAQBBBBAYACBHe6UHjUMQD3FFoxeoA3VJqmHoKtrCGAWggACCCAwgMAOd0qPGgagnmILRi/QhmqT1EPQ1TUEMAtBAAEEEBhAYIc7pUcNA1BPscUPjyx+fGcmOzSj2iT1YFhdwzs1Zm0EEEAAgTiBHe6UHjXEia0dyegF+ldtknoIurqGAGYhCCCAAAIDCOxwp/SoYQDqKbZg9AJtqDZJPQRdXUMAsxAEEEAAgQEEdrhTetQwAPUUWzB6gTZUm6Qegq6uIYBZCAIIIIDAAAI73Ck9ahiAeoot/MsYU7Th/Ukweu9nbAcEEEBgBQJM0gpd6pcjo9eP5dQrMXpTt0dyCCCAwDACjN4w1FNsxOhN0Yb3J8HovZ+xHRBAAIEVCDB6K3SpX46MXj+WU6/E6E3dHskhgAACwwgwesNQT7ERozdFG96fBKP3fsZ2QAABBFYgwOit0KV+OTJ6/VhOvRKjN3V7JIcAAggMI8DoDUM9xUaM3hRteH8SjN77GdsBAQQQWIEAo7dCl/rlyOj1Yzn1Soze1O2RHAIIIDCMAKM3DPUUGzF6gTZUm6Qeh7K6hgBmIQgggAACAwjscKf0qGEA6im2YPQCbag2ST0EXV1DALMQBBBAAIEBBHa4U3rUMAD1FFsweoE2VJukHoKuriGAWQgCCCCAwAACO9wpPWoYgHqKLRi9QBuqTVIPQVfXEMAsBAEEEEBgAIEd7pQeNQxAPcUWjF6gDdUmqYegq2sIYBaCAAIIIDCAwA53So8aBqCeYgtGL9CGapPUQ9DVNQQwC0EAAQQQGEBghzulRw0DUE+xBaMXaEO1Seoh6OoaApiFIIAAAggMILDDndKjhgGop9iC0Qu0odok9RB0dQ0BzEIQQAABBAYQ2OFO6VHDANRTbMHoBdpQbZJ6CLq6hgBmIQgggAACAwjscKf0qGEA6im2YPQCbag2ST0EXV1DALMQBBBAAIEBBHa4U3rUMAD1FFsweoE2VJukHoKuriGAWQgCCCCAwAACO9wpPWoYgHqKLRi9QBuqTVIPQVfXEMAsBAEEEEBgAIEd7pQeNQxAPcUWjF6gDdUmqYegq2sIYBaCAAIIIDCAwA53So8aBqCeYgtGL9CGapPUQ9DVNQQwC0EAAQQQGEBghzulRw0DUE+xBaMXaEO1Seoh6OoaApiFIIAAAggMILDDndKjhgGop9iC0Qu0odok9RB0dQ0BzEIQQAABBAYQ2OFO6VHDANRTbMHoBdpQbZJ6CLq6hgBmIQgggAACAwjscKf0qGEA6im2YPQCbag2ST0EXV1DALMQBBBAAIEBBHa4U3rUMAD1FFsweoE2VJukHoKuriGAWQgCCCCAwAACO9wpPWoYgHqKLRi9QBuqTVIPQVfXEMAsBAEEEEBgAIEd7pQeNQxAPcUWjF6gDdUmqYegq2sIYBaCAAIIIDCAwA53So8aBqCeYgtGL9CGapPUQ9DVNQQwC0EAAQQQGEBghzulRw0DUE+xBaM3RRvenwSj937GdkAAAQRWIMAkrdClfjkyev1YTr0Sozd1eySHAAIIDCPA6A1DPcVGjN4UbXh/Eoze+xnbAQEEEFiBAKO3Qpf65cjo9WM59UqM3tTtkRwCCCAwjACjNwz1FBsxelO04f1JMHrvZ2wHBBBAYAUCjN4KXeqXI6PXj+XUKzF6U7dHcggggMAwAozeMNRTbMToTdGG9yfB6L2fsR0QQACBFQgweit0qV+OjF4/llOvxOhN3R7JIYAAAsMIMHrDUE+xEaMXaEO1SepxKKtrCGAWggACCCAwgMAOd0qPGgagnmILRi/QhmqT1EPQ1TUEMAtBAAEEEBhAYIc7pUcNA1BPsQWjF2hDtUnqIejqGgKYhSCAAAIIDCCww53So4YBqKfYgtELtKHaJPUQdHUNAcxCEEAAAQQGENjhTulRwwDUU2zB6AXaUG2Segi6uoYAZiEIIIAAAgMI7HCn9KhhAOoptmD0Am2oNkk9BF1dQwCzEAQQQACBAQR2uFN61DAA9RRbMHqBNlSbpB6Crq4hgFkIAggggMAAAjvcKT1qGIB6ii0YvUAbqk1SD0FX1xDALAQBBBBAYACBHe6UHjUMQD3FFoxeoA3VJqmHoKtrCGAWggACCCAwgMAOd0qPGgagnmILRi/QhmqT1EPQ1TUEMAtBAAEEEBhAYIc7pUcNA1BPsQWjF2hDtUnqIejqGgKYhSCAAAIIDCCww53So4YBqKfYgtELtKHaJPUQdHUNAcxCEEAAAQQGENjhTulRwwDUU2zB6AXaUG2Segi6uoYAZiEIIIAAAgMI7HCn9KhhAOoptmD0Am2oNkk9BF1dQwCzEAQQQACBAQR2uFN61DAA9RRbMHqBNlSbpB6Crq4hgFkIAggggMAAAjvcKT1qGIB6ii0YvUAbqk1SD0FX1xDALAQBBBBAYACBHe6UHjUMQD3FFoxeoA3VJqmHoKtrCGAWggACCCAwgMAOd0qPGgagnmILRi/QhmqT1EPQ1TUEMAtBAAEEEBhAYIc7pUcNA1BPsQWjF2hDtUnqIejqGgKYhSCAAAIIDCCww53So4YBqKfYgtELtKHaJPUQdHUNAcxCEEAAAQQGENjhTulRwwDUU2zB6AXaUG2Segi6uoYAZiEIIIAAAgMI7HCn9KhhAOoptmD0pmjD+5Ng9N7P2A4IIIDACgSYpBW61C9HRq8fy6lXYvSmbo/kEEAAgWEEGL1hqKfYiNGbog3vT4LRez9jOyCAAAIrEGD0VuhSvxwZvX4sp16J0Zu6PZJDAAEEhhFg9IahnmIjRm+KNrw/CUbv/YztgAACCKxAgNFboUv9cmT0+rGceiVGb+r2SO6mBP7hH/7hcuW/8zu/c/k3foDAMwFG75nG/p8Zvf17/I8VMno3abQylyLA6C3Vrm2SZfS2aWWoEEYvhGn9IEZv/R6qYD8CjN5+PV2hIkZvhS71y5HR68dy6pUYvanbI7mbEmD0btr44rIZveIGDN6e0QsArzZJPQ5ldQ0BzEIQ2J7AV4zdGRR/Z++MkPdHAjvcKT1qOHLZ9TujF+hstUnqIejqGgKYhSCwPQFGb/sWL1HgDndKjxqWaFaHJBm9AMRqk9RD0NU1BDALQWB7Aoze9i1eosAd7pQeNSzRrA5JMnoBiNUmqYegq2sIYBaCwPYEGL3tW7xEgTvcKT1qWKJZHZJk9AIQq01SD0FX1xDALASB2xE4Gr/v/X27SMztwCk4RWCHO6VHDSmIC/2Y0Qs0q9ok9RB0dQ0BzEIQuB2BiImLxNwOnIJTBHa4U3rUkIK40I8ZvUCzqk1SD0FX1xDALASB2xGImLhIzO3AKThFYIc7pUcNKYgL/ZjRCzSr2iT1EHR1DQHMQhC4HYGIiYvE3A6cglMEdrhTetSQgrjQjxm9QLOqTVIPQVfXEMAsBIHtCZyZtuP7BuT49/aOMcf320NUYJrADndKjxrSIBdZgNELNKraJPUQdHUNAcxCENiewJlJO75vQI5G7hhzfL89RAWmCexwp/SoIQ1ykQUYvUCjqk1SD0FX1xDALASB7QmcmbTj+wbkaOSOMcf320NUYJrADndKjxrSIBdZgNELNKraJPUQdHUNAcxCENiewJlJO75vQI5G7hhzfL89RAWmCexwp/SoIQ1ykQUYvUCjqk1SD0FX1xDALASB7QmcmbTj+wbkaOSOMcf320NUYJrADndKjxrSIBdZgNELNKraJPUQdHUNAcxCENiewNGk9SiY0etB8V5r7HCn9KjhLl1n9AKdrjZJPQRdXUMAsxAEtifA6G3f4iUK3OFO6VHDEs3qkCSjF4BYbZJ6CLq6hgBmIQhsT4DR277FSxS4w53So4YlmtUhSUYvALHaJPUQdHUNAcxCENieAKO3fYuXKHCHO6VHDUs0q0OSjF4AYrVJ6iHo6hoCmIUgsB2Bdxi7M0j+zt4ZIe93uFN61HAXJTB6gU5Xm6Qegq6uIYBZCALbEWD0tmvpFgXtcKf0qGGLZgaKYPQCkKpNUg9BV9cQwCwEge0IMHrbtXSLgna4U3rUsEUzA0UwegFI1Saph6CrawhgFoLAdgQYve1aukVBO9wpPWrYopmBIhi9AKQdQhi9HbqohtUIMHqrdewe+TJJ9+jzz1Uyej+T2PyfjN7mDVbelAQYvSnbcvukGL17SYDRu0m/Gb2bNFqZUxFg9KZqh2T+iQCjdy8pMHo36Tejd5NGK3MqAozeVO2QzD8RYPTuJQVG7yb9ZvRu0mhlTkXgaPTO/ht3x/hWzNXfnMVPBUgyJQQYvRLsZZsyemXox27M6I3lbTcEGoGjcTszYcf4tsbV35zFtzU99ybA6N2r/4zeTfrN6N2k0cqcisDRuJ2ZsGN8K+bqb87ipwIkmRICjF4J9rJNGb0y9GM3ZvTG8rYbAo3A0bidmbBjfFvj6m/O4tuannsTYPTu1X9G7yb9ZvRu0mhlTkXgaNzOTNgxvhVz9Tdn8VMBkkwJAUavBHvZpoxeAH21SepxKKtrCGAWgsB2BL5n3J6LPJqy78VHYj5b8/mdzwg0AjvcKT1quIsaGL1Ap6tNUg9BV9cQwCwEge0IfM+4PRcZMXGRmM/WfH7nMwKNwA53So8a7qIGRi/Q6WqT1EPQ1TUEMAtBYDsCjN52Ld2ioB3ulB41bNHMQBGMXgBStUnqIejqGgKYhSCwHQFGb7uWblHQDndKjxq2aGagCEYvAKnaJPUQdHUNAcxCENiOwJnRe0fBx/+p9x17WHNtAjvcKT1qWLuL8ewZvQCrapPUQ9DVNQQwC0FgOwKM3nYt3aKgHe6UHjVs0cxAEYxeAFK1Seoh6OoaApiFILAdAUZvu5ZuUdAOd0qPGrZoZqAIRi8Aqdok9RB0dQ0BzEIQ2I4Ao7ddS7coaIc7pUcNWzQzUASjF4BUbZJ6CLq6hgBmIQhsR4DR266lWxS0w53So4YtmhkogtELQKo2ST0EXV1DALMQBLYjwOht19ItCtrhTulRwxbNDBTB6AUgVZukHoKuriGAWQgC2xFg9LZr6RYF7XCn9Khhi2YGimD0ApCqTVIPQVfXEMAsBIHtCDB627V0i4J2uFN61LBFMwNFMHoBSNUmqYegq2sIYBaCwHYEGL3tWrpFQTvcKT1q2KKZgSIYvQCkapPUQ9DVNQQwC0FgewLvMH7+A8nby6Z7gTvcKT1q6A520gUZvUBjqk1SD0FX1xDALASB7Qkwetu3eIkCd7hTetSwRLM6JMnoBSBWm6Qegq6uIYBZCALbE2D0tm/xEgXucKf0qGGJZnVIktELQKw2ST0EXV1DALMQBLYnwOht3+IlCtzhTulRwxLN6pAkoxeAWG2Segi6uoYAZiEI3I7AV4yfv5N3O5l0L3iHO6VHDd3BTrogoxdoTLVJ6iHo6hoCmIUgcDsCjN7tWj5FwTvcKT1qmKIZA5Jg9AKQq01SD0FX1xDALASB2xFg9G7X8ikK3uFO6VHDFM0YkASjF4BcbZJ6CLq6hgBmIQjcjgCjd7uWT1HwDndKjxqmaMaAJBi9AORqk9RD0NU1BDALQQABBBAYQGCHO6VHDQNQT7EFoxdoQ7VJ6iHo6hoCmIUggAACCAwgsMOd0qOGAain2ILRC7Sh2iT1EHR1DQHMQhBAAAEEBhDY4U7pUcMA1FNswegF2lBtknoIurqGAGYhCCCAAAIDCOxwp/SoYQDqKbZg9KZogyQQQAABBBBAAIH+BBi9/kytiAACCCCAAAIITEGA0ZuiDZJAAAEEEEAAAQT6E2D0+jO1IgIIIIAAAgggMAUBRm+KNkgCAQQQQAABBBDoT+CH3/79n//42bL/5V//y89en7779//jf5/GnAVU57D6/o1vtg+rM8jW3xjenUG2fjrMn0M6zJ9DOqTDGTQwMgdGr9E+ebIXXNZkZPdv5VXnsPr+jWG2D6szyNZPh/lzSIf5c0iHdDiDBkbmwOg12idP9oKrvuBbedU5rL5/Y7i6Dqp7QIf5c0iH+XNIh3Q4gwZG5sDoNdonz+oXfCuv+pJfff/GcHUdVPeADvPnkA7z55AO6XAGDYzMgdFrtE+e1S/4Vl71Jb/6/o3h6jqo7gEd5s8hHebPIR3S4QwaGJkDo9donzyrX/CtvOpLfvX9G8PVdVDdAzrMn0M6zJ9DOqTDGTQwMgdGr9E+eVa/4Ft51Zf86vs3hqvroLoHdJg/h3SYP4d0SIczaGBkDoxeo33yrH7Bt/KqL/nV928MV9dBdQ/oMH8O6TB/DumQDmfQwMgcGL1G++RZ/YJv5VVf8qvv3xiuroPqHtBh/hzSYf4c0iEdzqCBkTkweo32ybP6Bd/Kq77kV9+/MVxdB9U9oMP8OaTD/DmkQzqcQQMjc2D0Gu2TZ/ULvpVXfcmvvn9juLoOqntAh/lzSIf5c0iHdDiDBkbmwOg12ifP6hd8K6/6kl99/8ZwdR1U94AO8+eQDvPnkA7pcAYNjMzhhz/7vb/69P/r1uWQPxTVBsHl4HKYQQMz5FB9FrP7j7wc2l7fe6rvhOz+raZsH7I5rL5/Y3h3Btn6R+qQ0Wu0T55sQ6sPdSuvOofV928MV9dBdQ/oMH8O6TB/DumQDmfQwMgcGL1G++RZ/YJv5VVf8qvv3xiuroPqHtBh/hzSYf4c0iEdzqCBkTkweo32ybP6Bd/Kq77kV9+/MVxdB9U9oMP8OaTD/DmkQzqcQQMjc2D0Gu2TZ/ULvpVXfcmvvn9juLoOqntAh/lzSIf5c0iHdDiDBkbmwOg12ifP6hd8K6/6kl99/8ZwdR1U94AO8+eQDvPnkA7pcAYNjMyB0Wu0T57VL/hWXvUlv/r+jeHqOqjuAR3mzyEd5s8hHdLhDBoYmQOj12ifPKtf8K286kt+9f0bw9V1UN0DOsyfQzrMn0M6pMMZNDAyB0av0T55Vr/gW3nVl/zq+zeGq+ugugd0mD+HdJg/h3RIhzNoYGQOjF6jffKsfsG38qov+dX3bwxX10F1D+gwfw7pMH8O6ZAOZ9DAyBwYvUb75Fn9gm/lVV/yq+/fGK6ug+oe0GH+HNJh/hzSIR3OoIGROTB6jfbJs/oF38qrvuRX378xXF0H1T2gw/w5pMP8OaRDOpxBAyNzYPQa7ZNn9Qu+lVd9ya++f2O4ug6qe0CH+XNIh/lzSId0OIMGRuZwavRaMh4EEEAAAQQQQACB9Qgweuv1TMYIIIAAAggggECIAKMXwiQIAQQQQAABBBBYjwCjt17PZIwAAggggAACCIQI/PDbv//zHz+L9Be4839xtfov8bf+Vuew+v6NYfVZWH1/OsyfQzrMn0M6pMMZNDAyB0av0T55XLD54cro5YcrHdJhG1Wr66B6FjSG1Tmsvj8d5s/hSB0yeo32ybP6YG3lrT5YqnvQGFbnsPr+dJg/h3SYP4d0SIczaGBkDoxeo33yuGDzw3V1o9kksroOqnvQGFbnsPr+dJg/h3SYP4d0uJYOGb2m2JNn9Qu+lbf6BVfdg8awOofV96fD/Dmkw/w5pEM6nEEDI3Ng9Brtk8cFmx+uqxvNJpHVdVDdg8awOofV96fD/Dmkw/w5pMO1dMjoNcWePKtf8K281S+46h40htU5rL4/HebPIR3mzyEd0uEMGhiZA6PXaJ88Ltj8cF3daDaJrK6D6h40htU5rL4/HebPIR3mzyEdrqVDRq8p9uRZ/YJv5a1+wVX3oDGszmH1/ekwfw7pMH8O6ZAOZ9DAyBwYvUb75HHB5ofr6kazSWR1HVT3oDGszmH1/ekwfw7pMH8O6XAtHTJ6TbEnz+oXfCtv9QuuugeNYXUOq+9Ph/lzSIf5c0iHdDiDBkbmwOg12iePCzY/XFc3mk0iq+ugugeNYXUOq+9Ph/lzSIf5c0iHa+mQ0WuKPXlWv+BbeatfcNU9aAyrc1h9fzrMn0M6zJ9DOqTDGTQwMocf/uz3/urHtuGrp9ogtLyqc1h9/8ZwdZNQ3QM6zJ9DOsyfQzqkwxk0MEMO1XdCdv+R85DRa7RPnmxDq01WK686h9X3bwxX10F1D+gwfw7pMH8O6ZAOZ9DAyBwYvUb75Fn9gm/lVV/yq+/fGK6ug+oe0GH+HNJh/hzSIR3OoIGROTB6jfbJs/oF38qrvuRX378xXF0H1T2gw/w5pMP8OaRDOpxBAyNzYPQa7ZNn9Qu+lVd9ya++f2O4ug6qe0CH+XNIh/lzSId0OIMGRubA6DXaJ8/qF3wrr/qSX33/xnB1HVT3gA7z55AO8+eQDulwBg2MzIHRa7RPntUv+FZe9SW/+v6N4eo6qO4BHebPIR3mzyEd0uEMGhiZA6PXaJ88q1/wrbzqS371/RvD1XVQ3QM6zJ9DOsyfQzqkwxk0MDIHRq/RPnlWv+BbedWX/Or7N4ar66C6B3SYP4d0mD+HdEiHM2hgZA6MXqN98qx+wbfyqi/51fdvDFfXQXUP6DB/Dukwfw7pkA5n0MDIHBi9RvvkWf2Cb+VVX/Kr798Yrq6D6h7QYf4c0mH+HNIhHc6ggZE5MHqN9smz+gXfyqu+5FffvzFcXQfVPaDD/Dmkw/w5pEM6nEEDI3Ng9Brtk2f1C76VV33Jr75/Y7i6Dqp7QIf5c0iH+XNIh3Q4gwZG5nBq9FoyHgQQQAABBBBAAIH1CDB66/VMxggggAACCCCAQIgAoxfCJAgBBBBAAAEEEFiPAKO3Xs9kjAACCCCAAAIIhAj88Nu///MfP4v0F7jzf3G1+i/xt/5W57D6/o1h9VlYfX86zJ9DOsyfQzqkwxk0MDIHRq/RPnlcsPnhyujlhysd0mEbVavroHoWNIbVOay+Px3mz+FIHTJ6jfbJs/pgbeWtPliqe9AYVuew+v50mD+HdJg/h3RIhzNoYGQOjF6jffK4YPPDdXWj2SSyug6qe9AYVuew+v50mD+HdJg/h3S4lg4ZvabYk2f1C76Vt/oFV92DxrA6h9X3p8P8OaTD/DmkQzqcQQMjc2D0Gu2TxwWbH66rG80mkdV1UN2DxrA6h9X3p8P8OaTD/Dmkw7V0yOg1xZ48q1/wrbzVL7jqHjSG1Tmsvj8d5s8hHebPIR3S4QwaGJkDo9donzwu2PxwXd1oNomsroPqHjSG1Tmsvj8d5s8hHebPIR2upUNGryn25Fn9gm/lrX7BVfegMazOYfX96TB/Dukwfw7pkA5n0MDIHBi9RvvkccHmh+vqRrNJZHUdVPegMazOYfX96TB/Dukwfw7pcC0dMnpNsSfP6hd8K2/1C666B41hdQ6r70+H+XNIh/lzSId0OIMGRubA6DXaJ48LNj9cVzeaTSKr66C6B41hdQ6r70+H+XNIh/lzSIdr6ZDRa4o9eVa/4Ft5q19w1T1oDKtzWH1/OsyfQzrMn0M6pMMZNDAyhx8em/3YNvQggAACCCCAAAII7EWA0durn6pBAAEEEEAAAQQ+CDB6Hyh8QAABBBBAAAEE9iLA6O3VT9UggAACCCCAAAIfBBi9DxQ+IIAAAggggAACexFg9Pbqp2oQQAABBBBAAIEPAozeBwofEEAAAQQQQACBvQgwenv1UzUIIIAAAggggMAHAUbvA4UPCCCAAAIIIIDAXgQYvb36qRoEEEAAAQQQQOCDAKP3gcIHBBBAAAEEEEBgLwKM3l79VA0CCCCAAAIIIPBBgNH7QOEDAggggAACCCCwFwFGb69+qgYBBBBAAAEEEPggwOh9oPABAQQQQAABBBDYiwCjt1c/VYMAAggggAACCHwQYPQ+UPiAAAIIIIAAAgjsRYDR26ufqkEAAQQQQAABBD4IMHofKHxAAAEEEEAAAQT2IsDo7dVP1SCAAAIIIIAAAh8EGL0PFD4ggAACCCCAAAJ7EWD09uqnahBAAAEEEEAAgQ8CjN4HCh8QQAABBBBAAIG9CDB6e/VTNQgggAACCCCAwAcBRu8DhQ8IIIAAAggggMBeBBi9vfqpGgQQQAABBBBA4IMAo/eBwgcEEEAAAQQQQGAvAozeXv1UDQIIIIAAAggg8EGA0ftA4QMCCCCAAAIIILAXAUZvr36qBgEEEEAAAQQQ+CDA6H2g8AEBBBBAAAEEENiLAKO3Vz9VgwACCCCAAAIIfBBg9D5Q+IAAAggggAACCOxFgNHbq5+qQQABBBBAAAEEPggweh8ofEAAAQQQQAABBPYi8P8BZR0kESmeDgkAAAAASUVORK5CYII=;" vertex="1" parent="1">
          <mxGeometry x="170" y="180" width="86.54" height="120" as="geometry" />
        </mxCell>
        <mxCell id="Liv6vgH6BcydxZImhdhk-5" value="" style="endArrow=classic;html=1;rounded=0;entryX=0;entryY=0.5;entryDx=0;entryDy=0;exitX=1;exitY=0.5;exitDx=0;exitDy=0;" edge="1" parent="1" source="Liv6vgH6BcydxZImhdhk-4" target="Liv6vgH6BcydxZImhdhk-2">
          <mxGeometry width="50" height="50" relative="1" as="geometry">
            <mxPoint x="290" y="310" as="sourcePoint" />
            <mxPoint x="340" y="260" as="targetPoint" />
          </mxGeometry>
        </mxCell>
        <mxCell id="Liv6vgH6BcydxZImhdhk-6" value="state" style="text;html=1;strokeColor=none;fillColor=none;align=center;verticalAlign=middle;whiteSpace=wrap;rounded=0;" vertex="1" parent="1">
          <mxGeometry x="183" y="150" width="60" height="30" as="geometry" />
        </mxCell>
        <mxCell id="Liv6vgH6BcydxZImhdhk-7" value="fast weights transformer" style="rounded=0;whiteSpace=wrap;html=1;fillColor=#dae8fc;strokeColor=#0000FF;" vertex="1" parent="1">
          <mxGeometry x="480" y="290" width="120" height="60" as="geometry" />
        </mxCell>
        <mxCell id="Liv6vgH6BcydxZImhdhk-8" value="self supervised loss" style="rounded=0;whiteSpace=wrap;html=1;fillColor=#dae8fc;strokeColor=#0000FF;" vertex="1" parent="1">
          <mxGeometry x="480" y="140" width="120" height="60" as="geometry" />
        </mxCell>
        <mxCell id="Liv6vgH6BcydxZImhdhk-9" value="" style="endArrow=classic;html=1;rounded=1;entryX=0;entryY=0.5;entryDx=0;entryDy=0;exitX=1;exitY=0.5;exitDx=0;exitDy=0;curved=0;" edge="1" parent="1" source="Liv6vgH6BcydxZImhdhk-2" target="Liv6vgH6BcydxZImhdhk-8">
          <mxGeometry width="50" height="50" relative="1" as="geometry">
            <mxPoint x="320" y="170" as="sourcePoint" />
            <mxPoint x="370" y="120" as="targetPoint" />
            <Array as="points">
              <mxPoint x="440" y="240" />
              <mxPoint x="440" y="170" />
            </Array>
          </mxGeometry>
        </mxCell>
        <mxCell id="Liv6vgH6BcydxZImhdhk-10" value="" style="endArrow=classic;html=1;rounded=1;entryX=0;entryY=0.25;entryDx=0;entryDy=0;exitX=1;exitY=0.5;exitDx=0;exitDy=0;curved=0;" edge="1" parent="1" source="Liv6vgH6BcydxZImhdhk-2" target="Liv6vgH6BcydxZImhdhk-7">
          <mxGeometry width="50" height="50" relative="1" as="geometry">
            <mxPoint x="350" y="390" as="sourcePoint" />
            <mxPoint x="430" y="340" as="targetPoint" />
            <Array as="points">
              <mxPoint x="440" y="240" />
              <mxPoint x="440" y="305" />
            </Array>
          </mxGeometry>
        </mxCell>
        <mxCell id="Liv6vgH6BcydxZImhdhk-11" value="self supervised loss" style="rounded=0;whiteSpace=wrap;html=1;fillColor=#dae8fc;strokeColor=#0000FF;" vertex="1" parent="1">
          <mxGeometry x="640" y="360" width="120" height="60" as="geometry" />
        </mxCell>
        <mxCell id="Liv6vgH6BcydxZImhdhk-12" value="" style="endArrow=classic;html=1;rounded=1;entryX=0;entryY=0.5;entryDx=0;entryDy=0;exitX=1;exitY=0.5;exitDx=0;exitDy=0;curved=0;" edge="1" parent="1" source="Liv6vgH6BcydxZImhdhk-7" target="Liv6vgH6BcydxZImhdhk-11">
          <mxGeometry width="50" height="50" relative="1" as="geometry">
            <mxPoint x="510" y="460" as="sourcePoint" />
            <mxPoint x="560" y="410" as="targetPoint" />
            <Array as="points">
              <mxPoint x="620" y="320" />
              <mxPoint x="620" y="390" />
            </Array>
          </mxGeometry>
        </mxCell>
        <mxCell id="Liv6vgH6BcydxZImhdhk-13" value="critic" style="rounded=0;whiteSpace=wrap;html=1;fillColor=#e1d5e7;strokeColor=#7822A3;" vertex="1" parent="1">
          <mxGeometry x="720" y="180" width="40" height="60" as="geometry" />
        </mxCell>
        <mxCell id="Liv6vgH6BcydxZImhdhk-14" value="actor" style="rounded=0;whiteSpace=wrap;html=1;fillColor=#e1d5e7;strokeColor=#7822A3;" vertex="1" parent="1">
          <mxGeometry x="720" y="260" width="40" height="60" as="geometry" />
        </mxCell>
        <mxCell id="Liv6vgH6BcydxZImhdhk-15" value="" style="endArrow=classic;html=1;rounded=1;entryX=0;entryY=0.5;entryDx=0;entryDy=0;exitX=1;exitY=0.5;exitDx=0;exitDy=0;curved=0;" edge="1" parent="1" source="Liv6vgH6BcydxZImhdhk-7" target="Liv6vgH6BcydxZImhdhk-13">
          <mxGeometry width="50" height="50" relative="1" as="geometry">
            <mxPoint x="610" y="310" as="sourcePoint" />
            <mxPoint x="660" y="260" as="targetPoint" />
            <Array as="points">
              <mxPoint x="620" y="320" />
              <mxPoint x="620" y="210" />
            </Array>
          </mxGeometry>
        </mxCell>
        <mxCell id="Liv6vgH6BcydxZImhdhk-16" value="" style="endArrow=classic;html=1;rounded=1;entryX=0;entryY=0.5;entryDx=0;entryDy=0;exitX=1;exitY=0.5;exitDx=0;exitDy=0;curved=0;" edge="1" parent="1" source="Liv6vgH6BcydxZImhdhk-7" target="Liv6vgH6BcydxZImhdhk-14">
          <mxGeometry width="50" height="50" relative="1" as="geometry">
            <mxPoint x="650" y="340" as="sourcePoint" />
            <mxPoint x="700" y="290" as="targetPoint" />
            <Array as="points">
              <mxPoint x="620" y="320" />
              <mxPoint x="620" y="290" />
            </Array>
          </mxGeometry>
        </mxCell>
        <mxCell id="Liv6vgH6BcydxZImhdhk-17" value="" style="endArrow=classic;html=1;rounded=0;exitX=1;exitY=0.5;exitDx=0;exitDy=0;" edge="1" parent="1" source="Liv6vgH6BcydxZImhdhk-14">
          <mxGeometry width="50" height="50" relative="1" as="geometry">
            <mxPoint x="790" y="370" as="sourcePoint" />
            <mxPoint x="800" y="290" as="targetPoint" />
          </mxGeometry>
        </mxCell>
        <mxCell id="Liv6vgH6BcydxZImhdhk-18" value="$$\pi(s)$$" style="text;html=1;strokeColor=none;fillColor=none;align=center;verticalAlign=middle;whiteSpace=wrap;rounded=0;" vertex="1" parent="1">
          <mxGeometry x="770" y="260" width="60" height="30" as="geometry" />
        </mxCell>
        <mxCell id="Liv6vgH6BcydxZImhdhk-19" value="$$V(s)$$" style="text;html=1;strokeColor=none;fillColor=none;align=center;verticalAlign=middle;whiteSpace=wrap;rounded=0;" vertex="1" parent="1">
          <mxGeometry x="770" y="170" width="60" height="30" as="geometry" />
        </mxCell>
        <mxCell id="Liv6vgH6BcydxZImhdhk-20" value="" style="endArrow=classic;html=1;rounded=0;exitX=1;exitY=0.5;exitDx=0;exitDy=0;" edge="1" parent="1" source="Liv6vgH6BcydxZImhdhk-13">
          <mxGeometry width="50" height="50" relative="1" as="geometry">
            <mxPoint x="800" y="270" as="sourcePoint" />
            <mxPoint x="800" y="210" as="targetPoint" />
          </mxGeometry>
        </mxCell>
        <mxCell id="Liv6vgH6BcydxZImhdhk-21" value="prompt" style="rounded=0;whiteSpace=wrap;html=1;fillColor=#e1d5e7;strokeColor=#7822A3;" vertex="1" parent="1">
          <mxGeometry x="216.54000000000002" y="350" width="40" height="60" as="geometry" />
        </mxCell>
        <mxCell id="Liv6vgH6BcydxZImhdhk-22" value="" style="endArrow=classic;html=1;rounded=1;entryX=0;entryY=0.75;entryDx=0;entryDy=0;exitX=1;exitY=0.5;exitDx=0;exitDy=0;curved=0;" edge="1" parent="1" source="Liv6vgH6BcydxZImhdhk-21" target="Liv6vgH6BcydxZImhdhk-7">
          <mxGeometry width="50" height="50" relative="1" as="geometry">
            <mxPoint x="400" y="430" as="sourcePoint" />
            <mxPoint x="450" y="380" as="targetPoint" />
            <Array as="points">
              <mxPoint x="300" y="380" />
              <mxPoint x="450" y="335" />
            </Array>
          </mxGeometry>
        </mxCell>
        <mxCell id="Liv6vgH6BcydxZImhdhk-23" value="policy optimizer" style="rounded=0;whiteSpace=wrap;html=1;fillColor=#e1d5e7;strokeColor=#7822A3;" vertex="1" parent="1">
          <mxGeometry x="560" y="440" width="140" height="30" as="geometry" />
        </mxCell>
        <mxCell id="Liv6vgH6BcydxZImhdhk-25" value="self supervised optimizer" style="rounded=0;whiteSpace=wrap;html=1;fillColor=#dae8fc;strokeColor=#0000FF;" vertex="1" parent="1">
          <mxGeometry x="400" y="440" width="140" height="30" as="geometry" />
        </mxCell>
      </root>
    </mxGraphModel>
  </diagram>
</mxfile>
